# xmcd CD database file
#
# Track frame offsets:
#	150
#	14101
#	27516
#	42024
#	55857
#	67352
#	82261
#	96645
#	110700
#	123752
#	136353
#	151484
#	162476
#	176593
#	188989
#	204616
#	216834
#	230554
#	245864
#	257952
#	275945
#	288116
#	304722
#	317073
#
# Disc length: 4393 seconds
#
# Revision: 0
# Processed by: cddbd v1.5.2PL0 Copyright (c) Steve Scherf et al.
# Submitted via: NeoAudio 9.9.9
#
DISCID=83112718
DTITLE=Anita O'Day - A song stylist in Swingland
DYEAR=2005
DGENRE=Jazz
TTITLE0=Let me off uptown
TTITLE1=Goergia on my mind
TTITLE2=Slow down
TTITLE3=Drum boogie
TTITLE4=I take to you
TTITLE5=Stop ! The red light's on
TTITLE6=Watch the birdie
TTITLE7=Skylark
TTITLE8=Bolero at the Savoy
TTITLE9=Harlem on Parade
TTITLE10="Murder" He says
TTITLE11=Ain't misbehaving
TTITLE12=And her tears flowed like wine
TTITLE13=The lady in red
TTITLE14=(Singing the) blues
TTITLE15=How come ?
TTITLE16=Opus #1
TTITLE17=Boogie blues
TTITLE18=What is this thing called love ?
TTITLE19=Sweet Georgia Brown
TTITLE20=How high the moon
TTITLE21=Love for sale
TTITLE22=The lady is a tramp
TTITLE23=Ain't this a wonderful day ?
EXTD=YEAR: 2005
EXTT0=
EXTT1=
EXTT2=
EXTT3=
EXTT4=
EXTT5=
EXTT6=
EXTT7=
EXTT8=
EXTT9=
EXTT10=
EXTT11=
EXTT12=
EXTT13=
EXTT14=
EXTT15=
EXTT16=
EXTT17=
EXTT18=
EXTT19=
EXTT20=
EXTT21=
EXTT22=
EXTT23=
PLAYORDER=
